<svg width="251" height="234" viewBox="0 0 251 234" fill="none" xmlns="http://www.w3.org/2000/svg">
<path d="M124 0L123 1H120L119 2H118L114 6V7L113 8V9L112 10V13L111 14V28L112 29V31L113 32V34L114 35L113 36H96L95 37H91L90 38H87L86 39H85L84 40H83L82 41H81L80 42H79L78 43H77L76 44H75L73 46H72L70 48H69L66 51H65L61 55H60L32 83V84L31 85H30L29 84H16L15 85H13L12 86H10L9 87H8L7 88H6L5 89H4L3 90H2L1 91H0V93L4 97H5L7 99H8L10 101H12L13 102H16L17 103H29L30 102H33L34 101H36L37 100H39L40 99H41L42 98H44L45 97H47L48 96H49L50 95H52L53 94H54L55 93H56L57 92H59L60 91H61L62 90H63L64 89H65L66 88H67L68 87H69L70 86H71L73 84H74L75 83H76L77 82H78L80 80H81L82 79H83L85 77H86L88 75L89 76V88L90 89L89 90V91L86 94V95L84 97V98L82 100V101L81 102V103L80 104V105L79 106V107L78 108V109L76 111V112L75 113V114L74 115V116L73 117V118L72 119V120L71 121V122L70 123V124L69 125V126L68 127V128L67 129V131L66 132V133L65 134V135L64 136V137L63 138V140L62 141V142L61 143V144L60 145V147L59 148V149L58 150V152L57 153V154L56 155V157L55 158V160L54 161V162L53 163V165L52 166V168L51 169V171L50 172V173L49 174V177L48 178V180L47 181V183L46 184V186L45 187V189L44 190V193L43 194V197L42 198V201L41 202V205L40 206V209L39 210V213L38 214H35L34 215H33L32 216H30L29 217H28L27 218H26L25 219H24L23 220H22L21 221H20L17 224H16L9 231V232L8 233H88L89 234H92V233H89L87 231V230L80 223H79L78 222L79 221V220L81 218V217L82 216V215L84 213V212L85 211V210L86 209V208L87 207V206L88 205V204L89 203V202L90 201V200L91 199V198L92 197V196L93 195V194L94 193V192L95 191V190L96 189V188L97 187V186L98 185V184L99 183V182L100 181V180L101 179V178L102 177V176L103 175V174L104 173V172L105 171V170L106 169V168L107 167V166L108 165V164L109 163V162L111 160V158L112 157V156L114 154V153L115 152V151L116 150V149L117 148V147L119 145V144L120 143V142L121 141V140L122 139V137L123 136L125 138V139L127 141V142L128 143V144L130 146V147L131 148V149L132 150V151L134 153V154L135 155V156L136 157V158L137 159V160L138 161V162L140 164V165L141 166V167L142 168V169L143 170V171L144 172V173L146 175V176L147 177V178L148 179V180L149 181V182L150 183V184L151 185V186L152 187V188L153 189V190L154 191V192L155 193V194L156 195V196L157 197V198L158 199V200L159 201V202L160 203V204L161 205V206L163 208V209L164 210V211L165 212V213L166 214V215L167 216V217L168 218V219L169 220V221L170 222V223L172 225V226L165 233H164H242V232L240 230V229L234 223H233L231 221H230L228 219H227L226 218H224L223 217H222L221 216H219L218 215H215L214 214H211L209 212V209L208 208V205L207 204V201L206 200V197L205 196V194L204 193V190L203 189V187L202 186V184L201 183V181L200 180V178L199 177V175L198 174V172L197 171V170L196 169V167L195 166V164L194 163V161L193 160V159L192 158V156L191 155V154L190 153V151L189 150V149L188 148V147L187 146V144L186 143V142L185 141V140L184 139V137L183 136V135L182 134V133L181 132V131L180 130V129L179 128V127L178 126V125L177 124V123L176 122V121L174 119V118L173 117V116L172 115V114L171 113V112L170 111V110L168 108V107L167 106V105L165 103V102L164 101V100L162 98V97L160 95V94L158 92V86L159 85V78L160 77H161L163 79H164L165 80H166L167 81H168L170 83H171L172 84H173L174 85H175L176 86H177L179 88H180L181 89H182L183 90H184L185 91H186L187 92H189L190 93H191L192 94H193L194 95H195L196 96H198L199 97H200L201 98H203L204 99H206L207 100H209L210 101H212L213 102H216L217 103H221L222 104H231L232 103H236L237 102H239L240 101H241L242 100H243L244 99H245L251 93V92H250L249 91H248L247 90H246L245 89H244L243 88H242L241 87H239L238 86H237L236 85H222L221 86H219L210 77V76L191 57H190L185 52H184L180 48H179L177 46H176L175 45H174L172 43H171L170 42H169L168 41H167L166 40H164L163 39H161L160 38H157L156 37H151L150 36H138L137 35L138 34V32L139 31V28L140 27V14L139 13V11L138 10V9L137 8V7L135 5V4H134L132 2H131L130 1H128L127 0H124Z" fill="#213DE4"/>
</svg>
