<svg width="280" height="235" viewBox="0 0 280 235" fill="none" xmlns="http://www.w3.org/2000/svg">
<path d="M0 0V2L2 4V5L4 7V8L13 17H14L17 20H18L20 22H21L22 23H23L24 24H25L26 25H29L33 29V30L37 34H38L46 42H47L52 47H53L55 49H56L59 52H60L62 54H63L64 55H65L67 57H68L70 59H71L72 60H73L74 61H75L76 62H77L78 63H79L80 64H81L82 65H83L84 66H85L86 67H88L89 68H90L91 69H93L94 70H95L96 71H98L99 72H101L102 73H105L106 74H108L110 76V80L109 81V84L108 85V87L107 88V90L106 91V93L105 94V96L104 97V98L103 99V100L102 101V103L101 104V105L100 106V107L99 108V109L97 111V112L96 113V114L95 115V116L94 117V118L93 119V120L92 121V122L90 124V125L89 126V127L87 129V130L86 131V132L85 133V134L83 136V137L81 139V140L79 142V143L77 145V146L76 147V148L74 150V151L71 154V155L69 157V158L65 162V163L61 167V168L56 173V174L51 179V180L46 185V186L42 190V191L39 194V195L36 198V199L34 201V202L32 204V205L30 207V208L29 209V210L28 211V212L27 213V214L26 215V217L25 218V220L24 221V223L23 224V229L22 230V235H100V234L93 227H92L89 224H88L86 222H85L84 221H82L81 220H80L79 219H77L76 218H73L72 217V216L74 214H75L76 213H77L79 211H80L83 208H84L86 206H87L89 204H90L93 201H94L103 192H104L113 183V182L120 175V174L125 169V168L128 165V164L131 161V160L134 157V156L136 154V153L138 151V150L140 148V147L142 145V144L143 143V142L145 140H146L147 141V142L150 145V146L153 149V150L156 153V154L159 157V158L164 163V164L168 168V169L172 173V174L176 178V179L179 182V183L182 186V210L181 211V214L180 215V217L179 218V221L178 222V223L177 224V227L176 228V234L175 235H255V234L245 224H244L243 223H242L240 221H239L238 220H236L235 219H233L232 218H230L229 217H226L225 216L226 215V212L227 211V209L228 208V205L229 204V199L230 198V178L229 177V172L228 171V168L227 167V164L226 163V161L225 160V157L224 156V155L223 154V153L222 152V151L221 150V149L220 148V147L219 146V145L218 144V143L217 142V141L215 139V138L214 137V136L212 134V133L210 131V130L209 129V128L207 126V125L204 122V121L201 118V117L199 115V114L195 110V109L192 106V105L189 102V101L186 98V97L184 95V94L183 93V92L181 90V89L180 88V76L182 74H184L185 73H187L188 72H190L191 71H192L193 70H195L196 69H197L198 68H199L200 67H201L202 66H203L204 65H205L206 64H207L208 63H209L211 61H212L213 60H214L215 59H216L218 57H219L222 54H223L225 52H226L230 48H231L234 45H235L242 38H243L246 35V34L253 27H254L255 26H257L258 25H259L260 24H261L262 23H263L266 20H267L274 13V12L277 9V8L278 7V6L279 5V4L280 3V0H279L278 1H276L275 2H274L273 3H271L270 4H269L268 5H266L265 6H263L262 7H261L260 8H258L257 9H256L255 10H253L252 11H251L250 12H248L247 13H246L245 14H243L242 15H240L239 16H238L237 17H235L234 18H232L231 19H229L228 20H226L225 21H223L222 22H219L218 23H216L215 24H212L211 25H208L207 26H204L203 27H200L199 28H195L194 29H190L189 30H185L184 31H180L179 32H173L172 33H167L166 34H161L160 35H159L158 34V32L159 31V23L158 22V18L157 17V14L156 13V12L155 11V10L153 8V7L151 5H150L149 4H148L146 2H143L142 1H138L137 2H135L134 3H133L129 7V8L128 9V10L127 11V15L126 16V18L127 19V24L128 25V27L129 28V29L130 30V31L131 32V33L130 34H123L122 33H115L114 32H109L108 31H102L101 30H97L96 29H92L91 28H87L86 27H83L82 26H79L78 25H74L73 24H71L70 23H67L66 22H63L62 21H60L59 20H57L56 19H53L52 18H50L49 17H47L46 16H45L44 15H42L41 14H39L38 13H36L35 12H33L32 11H31L30 10H28L27 9H25L24 8H22L21 7H20L19 6H17L16 5H14L13 4H11L10 3H9L8 2H6L5 1H3L2 0H0Z" fill="#213DE4"/>
</svg>
