<svg width="260" height="223" viewBox="0 0 260 223" fill="none" xmlns="http://www.w3.org/2000/svg">
<path d="M143 0L142 1H140L138 3H137L134 6V7L132 9V10L131 11V12L130 13V15L129 16V18L128 19V29L127 30L126 29H122L121 28H117L116 27H111L110 26H103L102 25H92L91 24H54L53 25H42L41 26H34L33 27H29L28 28H24L23 29H21L20 30H19L18 31H16L14 33H13L11 35H10L5 40V41L2 44V45L0 47V48H3L4 49H10L11 50H12L13 51H18L19 50H23L24 49H26L27 48H28L29 47H30L32 45H36L37 46H39L40 47H43L44 48H46L47 49H50L51 50H53L54 51H57L58 52H60L61 53H64L65 54H68L69 55H71L72 56H75L76 57H79L80 58H83L84 59H87L88 60H91L92 61H94L95 62H99L100 63V64L99 65V68L98 69V73L97 74V77L96 78V83L95 84V88L94 89H92L91 90H89L88 91H85L84 92H82L81 93H79L78 94H76L75 95H73L72 96H71L70 97H68L67 98H66L65 99H63L62 100H61L60 101H59L58 102H56L55 103H54L53 104H52L50 106H49L48 107H47L46 108H45L43 110H42L41 111H40L37 114H36L33 117H32L22 127V128L20 130V131L19 132V133L18 134V136L17 137V141L16 142V152L17 153V157L18 158V160L19 161V162L20 163V165L21 166V167L23 169V170L25 172V173L29 177V178L38 187H39L44 192H45L48 195H49L51 197H52L53 198H54L56 200H57L58 201V202L57 203H52L51 204H48L47 205H45L44 206H43L42 207H41L40 208H39L37 210H36L32 214H31L30 215V216L27 219V220L25 222L26 223H110V218L109 217V214L108 213V211L107 210V207L106 206V205L105 204V202L104 201V199L103 198V197L102 196V195L101 194V192L100 191V190L99 189V188L98 187V186L96 184V183L95 182V181L94 180V179L92 177V176L90 174V173L88 171V170L86 168V167L81 162V161L73 153V152L74 151H81L82 150H88L89 149H97L98 148H109L110 147H117L118 148H122L123 149H126L127 150H130L131 151H133L134 152H137L138 153H140L141 154H143L144 155H146L147 156H149L150 157H151L152 158H154L155 159H157L158 160H159L160 161H163L164 162H165L166 163H168L169 164H170L172 166L171 167V169L170 170V173L169 174V177L168 178V182L167 183V204L168 205V211L169 212V215L170 216V219L171 220V221L172 222V223H247V222L237 212H236L234 210H233L232 209H231L230 208H229L228 207H227L226 206H224L223 205H221L220 204H217L216 203H212L211 202L212 201V200L213 199V198L214 197V196L215 195V194L216 193V192L217 191V189L218 188V186L219 185V183L220 182V179L221 178V174L222 173V167L223 166V158L222 157V152L221 151V149L220 148V146L219 145V144L218 143V142L216 140V139L206 129H205L202 126H201L198 123H197L196 122H195L193 120H192L190 118H189L188 117H187L186 116H185L183 114H181L180 113H179L178 112H177L176 111H175L174 110H172L171 109H170L169 108H167L166 107H164L163 106H161L160 105L161 104V103L162 102V100L163 99V97L164 96V93L165 92V89L166 88V82L167 81L168 82H169L170 83H171L172 84H174L175 85H177L178 86H179L180 87H182L183 88H185L186 89H187L188 90H190L191 91H192L193 92H195L196 93H197L198 94H200L201 95H203L204 96H205L206 97H208L209 98H211L212 99H214L215 100H216L217 101H219L220 102H222L223 103H225L227 105V106L232 111H233L235 113H236L238 115H240L241 116H243L244 117H252L253 118H255L256 117H260V116L259 115V113L258 112V111L257 110V109L256 108V107L254 105V104L245 95H244L243 94H242L241 93H240L239 92H237L219 74H218L214 70H213L209 66H208L205 63H204L202 61H201L198 58H197L196 57H195L193 55H192L190 53H189L188 52H187L185 50H184L183 49H182L181 48H180L179 47H178L177 46H176L175 45H174L173 44H172L171 43H170L169 42H168L167 41H166L165 40H163L162 39H160L159 38H158L157 37H154L153 36V35L154 34V33L156 31V29L157 28V27L158 26V24L159 23V19L160 18V11L159 10V7L157 5V4L155 2H154L153 1H152L151 0H143Z" fill="#213DE4"/>
</svg>
