<svg width="239" height="220" viewBox="0 0 239 220" fill="none" xmlns="http://www.w3.org/2000/svg">
<path d="M84 0L83 1H74L73 2H68L67 3H62L61 4H57L56 5H54L53 6H50L49 7H47L46 8H44L43 9H42L41 10H40L39 11H37L35 13H34L33 14H32L30 16H29L27 18H26L23 21V22L20 25V26L19 27V28L18 29V31L17 32V39L18 40V42L19 43V45L20 46V47L22 49V50L29 57H30L33 60H34L36 62H37L38 63H39L40 64H41L42 65H43L44 66H45L46 67H47L48 68H49L50 69H51L52 70H54L55 71H56L57 72H59L60 73H62L63 74H65L66 75H68L69 76H72L73 77H76L77 78H80L81 79H86L88 81L87 82V84L86 85V87L85 88V90L84 91V93L83 94V95L82 96H80L79 97H72L71 98H66L65 99H61L60 100H57L56 101H53L52 102H50L49 103H47L46 104H44L43 105H41L40 106H39L38 107H37L36 108H35L34 109H33L32 110H31L30 111H29L28 112H27L25 114H24L23 115H22L20 117H19L14 122H13L9 126V127L6 130V131L4 133V135L3 136V137L2 138V140L1 141V147L0 148V151L1 152V157L2 158V160L3 161V163L4 164V165L5 166V168L6 169V170L8 172V173L10 175V176L16 182V183L20 187H21L26 192H27L30 195H31L33 197H34L37 200L36 201H31L30 202H28L27 203H26L25 204H24L23 205H22L21 206H20L19 207H18L10 215V216L8 218V220H83V214L82 213V209L81 208V205L80 204V202L79 201V198L78 197V196L77 195V193L76 192V190L75 189V188L74 187V186L73 185V183L72 182V181L71 180V179L70 178V177L68 175V174L67 173V172L65 170V169L63 167V166L61 164V163L53 155L54 154H80L81 153H90L91 152H97L98 153L97 154V168L96 169V171L97 172V183L98 184V188L99 189V192L100 193V196L101 197V198L102 199V201L103 202V203L104 204V205L105 206V207L107 209V210L112 215H113L115 217H117L118 218H120L121 219H124L125 220H234L235 219H236L237 220H238L239 219L235 215V214L231 210V209L227 205V204L222 199V198L217 193V192L211 186V185L205 179V178L201 174H200L199 175H198L196 177H195L194 178H193L188 183V184L186 186H185L184 185H183L182 184H181L180 183H178L177 182H175L174 181H171L170 180H166L165 179H151L150 178V175L151 174V168L152 167V140L151 139V134L150 133V130L149 129V126L148 125V123L147 122V121L146 120V118L145 117V116L144 115L145 114V113L146 112V111L147 110V109L148 108V107L149 106V105L150 104V102L151 101V100L152 99V96L153 95H181L182 94H190L191 93H199L200 92H201L202 93V95L201 96V98L200 99V102L199 103V110L198 111V125L196 127H194L193 128H192L190 130H189L183 136V137L182 138V139L181 140V141L180 142V144L179 145V155H181L182 154H185L186 153H188L189 152H191L192 151H194L195 150H196L197 149H198L199 148H200L202 146H203L206 143H207L216 134V133L221 128V127L223 125V124L225 122V121L227 119V118L228 117V116L229 115V114L230 113V111L231 110V109L232 108V105L233 104V101L234 100V82L233 81V79L232 78V77L231 76V75L223 67H222L221 66H220L218 64H217L216 63H215L214 62H212L211 61H210L209 60H207L206 59H204L203 58H201L200 57H197L196 56H192L191 55H188L187 54H183L182 53H178L177 52H173L172 51H167L166 50H159L158 49H150L149 48H143L142 47V45L143 44V42L144 41V35L145 34V28L144 27V23L143 22V21L142 20V19L141 18V17L137 13H136L135 12H133L132 11H127L126 12H125L124 13H123L119 17V18L117 20V22L116 23V26L115 27V40L116 41V43L115 44H114L113 43H107L106 42H101L100 41H94L93 40H87L86 39H80L79 38H73L72 37H67L66 36H60L59 35H57L56 34L57 33H58L59 32H60L61 31H62L63 30H64L65 29H66L68 27H69L70 26H71L73 24H74L76 22H77L84 15L85 16H98L99 15H102L103 14H105L106 13H107L108 12H109L110 11H111L113 9H114L118 5V4L120 2V0H84Z" fill="#213DE4"/>
</svg>
