<svg width="250" height="212" viewBox="0 0 250 212" fill="none" xmlns="http://www.w3.org/2000/svg">
<path d="M124 0L123 1H116L115 2H109L108 3H102L101 4H97L96 5H92L91 6H88L87 7H83L82 8H79L78 9H75L74 10H71L70 11H68L67 12H65L64 13H62L61 14H59L58 15H57L56 16H55L54 17H53L52 18H51L50 19H49L48 20H47L46 21H45L43 23H42L40 25H39L32 32V33L30 35V37L29 38V47L30 48V50L31 51V52L32 53V54L41 63H42L44 65H45L47 67H48L49 68H50L51 69H52L53 70H54L55 71H56L57 72H59L60 73H61L62 74H64L65 75H67L68 76H70L71 77H73L74 78H77L78 79H82L83 80H86L87 81H89L90 82L89 83V103L90 104L88 106H87L86 107H85L84 108H83L81 110H80L78 112H77L74 115H73L68 120H67L54 133V134L50 138V139L47 142V143L44 146V147L43 148V149L42 150V151L41 152V154L40 155V157L36 161H35L34 162H33L31 164H30L26 168H25L20 173H19L14 178V179L9 184V185L7 187V188L6 189V190L5 191V192L4 193V194L3 195V196L2 197V199L1 200V204L0 205V212H77L76 211V210L69 203H68L66 201H65L63 199H61L60 198H59L58 197H56L55 196H52L51 195H48L47 194L48 193H50L51 192H53L54 191H55L56 190H58L59 189H61L62 188H63L64 187H65L66 186H68L69 185H70L71 184H72L73 183H74L75 182H77L78 181H79L80 180H81L82 179H83L84 178H85L86 177H87L88 176H89L90 175H91L93 173H94L95 172H96L97 171H98L100 169H101L103 167H104L106 165H107L109 163H110L112 161H113L117 157H118L121 154H124L125 155H128L129 156H134L135 157H142L143 158H153L154 159H176L177 158H181L182 159V160L181 161V162L180 163V165L179 166V168L178 169V171L177 172V175L176 176V180L175 181V207L176 208V212H250V211L241 202H240L238 200H237L236 199H235L233 197H231L230 196H229L228 195H226L225 194H223L222 193H217L216 192L217 191V190L220 187V186L222 184V183L223 182V181L225 179V178L226 177V176L227 175V174L228 173V172L229 171V170L230 169V167L231 166V164L232 163V160L233 159V152L234 151V145L233 144V139L232 138V137L231 136V134L229 132V131L225 127V126H224L220 122H219L217 120H216L215 119H214L213 118H212L211 117H210L209 116H208L207 115H206L205 114H203L202 113H200L199 112H197L196 111H194L193 110H190L189 109H185L184 108H179L178 107H157L156 106V104L157 103V99L158 98V95L159 94V89L160 88H183L184 87H192L193 86H198L199 85H202L203 84H206L207 83H209L210 82H212L213 81H214L215 80H216L217 79H218L224 73V72L225 71V69L226 68V63L225 62V60L224 59V58L223 57V56L221 54V53L211 43H210L206 39H205L202 36H201L199 34H198L196 32H195L193 30H192L190 28H189L188 27H187L185 25H184L183 24H182L181 23H180L179 22H178L177 21H176L174 19H173L172 18H171L170 17H169L168 16H167L165 14H164L163 13H162L161 12H160L159 11H158L157 10H156L154 8H152L151 7H150L149 6H148L146 4H145L144 3H143L142 2H141L140 1H139V7L140 8V10L141 11V13L142 14V15L144 17V18L150 24H151L153 26H154L155 27H156L157 28H158L159 29H161L164 32V33L166 35V36L170 40V41L181 52L180 53H178L177 52H169L168 51H161L160 50H154L153 49H147L146 48H142L141 47V45L142 44V42L143 41V27L142 26V25L141 24V23L139 21H138L137 20H136L135 19H134L133 18H128L127 19H125L123 21H122L121 22V23L119 25V26L117 28V30L116 31V34L115 35V44L114 45H113L112 44H105L104 43H96L95 42H89L88 41H79L78 40H72L71 39L72 38H73L75 36H76L77 35H78L79 34H80L82 32H83L85 30H86L88 28H89L98 19H106L107 18H111L112 17H114L115 16H116L117 15H118L119 14H120L127 7V6L128 5V4L129 3V2L130 1V0H124Z" fill="#213DE4"/>
</svg>
