<svg width="251" height="218" viewBox="0 0 251 218" fill="none" xmlns="http://www.w3.org/2000/svg">
<path d="M151 0L150 1H146L144 3H143L142 4H141L138 7V8L136 10V11L135 12V13L134 14V16L133 17V19L132 20V25L131 26V31L130 32H129L128 31H125L124 30H121L120 29H117L116 28H112L111 27H107L106 26H102L101 25H98L97 24H92L91 23H87L86 22H81L80 21H75L74 20H69L68 19H63L62 18H57L56 17H52L51 16H46L45 15H42L37 10H36L35 9H34L33 8H32L31 7H29L28 6H23L22 5H14L13 6H5L4 7H0V9L2 11V12L10 20H11L13 22H14L15 23H17L18 24H24L26 26V27L30 31H31L36 36H37L40 39H41L43 41H44L46 43H47L49 45H50L51 46H52L53 47H54L56 49H57L58 50H59L60 51H61L62 52H63L64 53H65L66 54H67L68 55H69L70 56H71L72 57H73L74 58H76L77 59H78L79 60H81L82 61H83L84 62H87L88 63H90L91 64H93L94 65H97L98 66H99L100 67L99 68V69L98 70V71L97 72V74L96 75V76L95 77V78L94 79V81L93 82V83L92 84V85L91 86H89L88 87H85L84 88H80L79 89H76L75 90H72L71 91H69L68 92H66L65 93H63L62 94H61L60 95H58L57 96H56L55 97H54L53 98H52L51 99H50L49 100H48L47 101H46L45 102H44L43 103H42L40 105H39L37 107H36L33 110H32L23 119V120L21 122V123L19 125V126L18 127V128L17 129V131L16 132V134L15 135V140L14 141V149L15 150V154L16 155V157L17 158V160L18 161V162L19 163V164L20 165V166L21 167V168L24 171V172L27 175V176L36 185H37L41 189H42L45 192H46L48 194H49L51 196H52L53 197H54L55 198L54 199H53L52 200H49L48 201H46L45 202H43L42 203H41L40 204H38L36 206H35L32 209H31L27 213V214L24 217V218H105V216L104 215V211L103 210V207L102 206V204L101 203V200L100 199V197L99 196V195L98 194V192L97 191V190L96 189V188L95 187V186L94 185V184L93 183V182L91 180V179L90 178V177L89 176V175L87 173V172L86 171V170L84 168V167L81 164V163L78 160V159L69 150H68L67 149L68 148H71L72 147H81L82 146H97L98 145H107L108 146H110L111 147H113L114 148H116L117 149H119L120 150H123L124 151H126L127 152H129L130 153H132L133 154H135L136 155H137L138 156H141L142 157H144L145 158H147L148 159H150L151 160H152L153 161H155L156 162H159L160 163H162L164 165L163 166V168L162 169V171L161 172V174L160 175V178L159 179V182L158 183V190L157 191V210L158 211V217L159 218H231V217L229 215V214L224 209H223L220 206H219L218 205H217L216 204H215L214 203H213L212 202H210L209 201H207L206 200H202L200 198V197L202 195V194L203 193V192L205 190V189L206 188V187L208 185V183L209 182V181L210 180V179L211 178V176L212 175V173L213 172V169L214 168V149L213 148V146L212 145V144L210 142V141L208 139V138L198 128H197L194 125H193L191 123H190L189 122H188L186 120H185L183 118H182L181 117H180L179 116H178L177 115H176L175 114H174L173 113H171L170 112H169L168 111H166L165 110H163L162 109H160L159 108H156L154 106L155 105V104L156 103V102L157 101V100L158 99V98L159 97V95L160 94V93L161 92V91L162 90V88L163 87V85L164 84V82L165 81L166 82H171L172 83H177L178 84H185L186 85H194L195 86H205L206 87H221L223 89V90L224 91V92L229 97H230L232 99H233L234 100H235L236 101H238L239 102H251V101L250 100V97L249 96V94L248 93V91L247 90V89L246 88V87L245 86V85L243 83V82L235 74H234L232 72H231L229 70H228L227 69H226L224 67H223L222 66H221L220 65H219L218 64H217L216 63H215L213 61H212L211 60H210L209 59H207L206 58H205L204 57H203L202 56H201L200 55H199L198 54H197L196 53H194L193 52H192L191 51H190L189 50H187L186 49H185L184 48H182L181 47H179L178 46H177L176 45H174L173 44H170L169 43H167L166 42H164L163 41H162L161 40H158L157 39H156L155 38L156 37V36L158 34V33L159 32V31L161 29V28L162 27V25L163 24V22L164 21V9L163 8V7L162 6V5L160 3H159L158 2H157L156 1H153L152 0H151Z" fill="#213DE4"/>
</svg>
