<svg width="280" height="235" viewBox="0 0 280 235" fill="none" xmlns="http://www.w3.org/2000/svg">
  <style>
    .frame { opacity: 0; }
    .frame1 { animation: show1 8.4s infinite; }
    .frame2 { animation: show2 8.4s infinite; }
    .frame3 { animation: show3 8.4s infinite; }
    .frame4 { animation: show4 8.4s infinite; }
    .frame5 { animation: show5 8.4s infinite; }
    .frame6 { animation: show6 8.4s infinite; }
    
    @keyframes show1 {
      0%, 16.66% { opacity: 1; }
      16.67%, 100% { opacity: 0; }
    }
    @keyframes show2 {
      0%, 16.66% { opacity: 0; }
      16.67%, 33.32% { opacity: 1; }
      33.33%, 100% { opacity: 0; }
    }
    @keyframes show3 {
      0%, 33.32% { opacity: 0; }
      33.33%, 49.99% { opacity: 1; }
      50%, 100% { opacity: 0; }
    }
    @keyframes show4 {
      0%, 49.99% { opacity: 0; }
      50%, 66.65% { opacity: 1; }
      66.66%, 100% { opacity: 0; }
    }
    @keyframes show5 {
      0%, 66.65% { opacity: 0; }
      66.66%, 83.32% { opacity: 1; }
      83.33%, 100% { opacity: 0; }
    }
    @keyframes show6 {
      0%, 83.32% { opacity: 0; }
      83.33%, 100% { opacity: 1; }
    }
  </style>
  <path class="frame frame1" d="M0 0V2L2 4V5L4 7V8L13 17H14L17 20H18L20 22H21L22 23H23L24 24H25L26 25H29L33 29V30L37 34H38L46 42H47L52 47H53L55 49H56L59 52H60L62 54H63L64 55H65L67 57H68L70 59H71L72 60H73L74 61H75L76 62H77L78 63H79L80 64H81L82 65H83L84 66H85L86 67H88L89 68H90L91 69H93L94 70H95L96 71H98L99 72H101L102 73H105L106 74H108L110 76V80L109 81V84L108 85V87L107 88V90L106 91V93L105 94V96L104 97V98L103 99V100L102 101V103L101 104V105L100 106V107L99 108V109L97 111V112L96 113V114L95 115V116L94 117V118L93 119V120L92 121V122L90 124V125L89 126V127L87 129V130L86 131V132L85 133V134L83 136V137L81 139V140L79 142V143L77 145V146L76 147V148L74 150V151L71 154V155L69 157V158L65 162V163L61 167V168L56 173V174L51 179V180L46 185V186L42 190V191L39 194V195L36 198V199L34 201V202L32 204V205L30 207V208L29 209V210L28 211V212L27 213V214L26 215V217L25 218V220L24 221V223L23 224V229L22 230V235H100V234L93 227H92L89 224H88L86 222H85L84 221H82L81 220H80L79 219H77L76 218H73L72 217V216L74 214H75L76 213H77L79 211H80L83 208H84L86 206H87L89 204H90L93 201H94L103 192H104L113 183V182L120 175V174L125 169V168L128 165V164L131 161V160L134 157V156L136 154V153L138 151V150L140 148V147L142 145V144L143 143V142L145 140H146L147 141V142L150 145V146L153 149V150L156 153V154L159 157V158L164 163V164L168 168V169L172 173V174L176 178V179L179 182V183L182 186V210L181 211V214L180 215V217L179 218V221L178 222V223L177 224V227L176 228V234L175 235H255V234L245 224H244L243 223H242L240 221H239L238 220H236L235 219H233L232 218H230L229 217H226L225 216L226 215V212L227 211V209L228 208V205L229 204V199L230 198V178L229 177V172L228 171V168L227 167V164L226 163V161L225 160V157L224 156V155L223 154V153L222 152V151L221 150V149L220 148V147L219 146V145L218 144V143L217 142V141L215 139V138L214 137V136L212 134V133L210 131V130L209 129V128L207 126V125L204 122V121L201 118V117L199 115V114L195 110V109L192 106V105L189 102V101L186 98V97L184 95V94L183 93V92L181 90V89L180 88V76L182 74H184L185 73H187L188 72H190L191 71H192L193 70H195L196 69H197L198 68H199L200 67H201L202 66H203L204 65H205L206 64H207L208 63H209L211 61H212L213 60H214L215 59H216L218 57H219L222 54H223L225 52H226L230 48H231L234 45H235L242 38H243L246 35V34L253 27H254L255 26H257L258 25H259L260 24H261L262 23H263L266 20H267L274 13V12L277 9V8L278 7V6L279 5V4L280 3V0H279L278 1H276L275 2H274L273 3H271L270 4H269L268 5H266L265 6H263L262 7H261L260 8H258L257 9H256L255 10H253L252 11H251L250 12H248L247 13H246L245 14H243L242 15H240L239 16H238L237 17H235L234 18H232L231 19H229L228 20H226L225 21H223L222 22H219L218 23H216L215 24H212L211 25H208L207 26H204L203 27H200L199 28H195L194 29H190L189 30H185L184 31H180L179 32H173L172 33H167L166 34H161L160 35H159L158 34V32L159 31V23L158 22V18L157 17V14L156 13V12L155 11V10L153 8V7L151 5H150L149 4H148L146 2H143L142 1H138L137 2H135L134 3H133L129 7V8L128 9V10L127 11V15L126 16V18L127 19V24L128 25V27L129 28V29L130 30V31L131 32V33L130 34H123L122 33H115L114 32H109L108 31H102L101 30H97L96 29H92L91 28H87L86 27H83L82 26H79L78 25H74L73 24H71L70 23H67L66 22H63L62 21H60L59 20H57L56 19H53L52 18H50L49 17H47L46 16H45L44 15H42L41 14H39L38 13H36L35 12H33L32 11H31L30 10H28L27 9H25L24 8H22L21 7H20L19 6H17L16 5H14L13 4H11L10 3H9L8 2H6L5 1H3L2 0H0Z" fill="#302fec"/>
  <path class="frame frame2" d="M84 0L83 1H74L73 2H68L67 3H62L61 4H57L56 5H54L53 6H50L49 7H47L46 8H44L43 9H42L41 10H40L39 11H37L35 13H34L33 14H32L30 16H29L27 18H26L23 21V22L20 25V26L19 27V28L18 29V31L17 32V39L18 40V42L19 43V45L20 46V47L22 49V50L29 57H30L33 60H34L36 62H37L38 63H39L40 64H41L42 65H43L44 66H45L46 67H47L48 68H49L50 69H51L52 70H54L55 71H56L57 72H59L60 73H62L63 74H65L66 75H68L69 76H72L73 77H76L77 78H80L81 79H86L88 81L87 82V84L86 85V87L85 88V90L84 91V93L83 94V95L82 96H80L79 97H72L71 98H66L65 99H61L60 100H57L56 101H53L52 102H50L49 103H47L46 104H44L43 105H41L40 106H39L38 107H37L36 108H35L34 109H33L32 110H31L30 111H29L28 112H27L25 114H24L23 115H22L20 117H19L14 122H13L9 126V127L6 130V131L4 133V135L3 136V137L2 138V140L1 141V147L0 148V151L1 152V157L2 158V160L3 161V163L4 164V165L5 166V168L6 169V170L8 172V173L10 175V176L16 182V183L20 187H21L26 192H27L30 195H31L33 197H34L37 200L36 201H31L30 202H28L27 203H26L25 204H24L23 205H22L21 206H20L19 207H18L10 215V216L8 218V220H83V214L82 213V209L81 208V205L80 204V202L79 201V198L78 197V196L77 195V193L76 192V190L75 189V188L74 187V186L73 185V183L72 182V181L71 180V179L70 178V177L68 175V174L67 173V172L65 170V169L63 167V166L61 164V163L53 155L54 154H80L81 153H90L91 152H97L98 153L97 154V168L96 169V171L97 172V183L98 184V188L99 189V192L100 193V196L101 197V198L102 199V201L103 202V203L104 204V205L105 206V207L107 209V210L112 215H113L115 217H117L118 218H120L121 219H124L125 220H234L235 219H236L237 220H238L239 219L235 215V214L231 210V209L227 205V204L222 199V198L217 193V192L211 186V185L205 179V178L201 174H200L199 175H198L196 177H195L194 178H193L188 183V184L186 186H185L184 185H183L182 184H181L180 183H178L177 182H175L174 181H171L170 180H166L165 179H151L150 178V175L151 174V168L152 167V140L151 139V134L150 133V130L149 129V126L148 125V123L147 122V121L146 120V118L145 117V116L144 115L145 114V113L146 112V111L147 110V109L148 108V107L149 106V105L150 104V102L151 101V100L152 99V96L153 95H181L182 94H190L191 93H199L200 92H201L202 93V95L201 96V98L200 99V102L199 103V110L198 111V125L196 127H194L193 128H192L190 130H189L183 136V137L182 138V139L181 140V141L180 142V144L179 145V155H181L182 154H185L186 153H188L189 152H191L192 151H194L195 150H196L197 149H198L199 148H200L202 146H203L206 143H207L216 134V133L221 128V127L223 125V124L225 122V121L227 119V118L228 117V116L229 115V114L230 113V111L231 110V109L232 108V105L233 104V101L234 100V82L233 81V79L232 78V77L231 76V75L223 67H222L221 66H220L218 64H217L216 63H215L214 62H212L211 61H210L209 60H207L206 59H204L203 58H201L200 57H197L196 56H192L191 55H188L187 54H183L182 53H178L177 52H173L172 51H167L166 50H159L158 49H150L149 48H143L142 47V45L143 44V42L144 41V35L145 34V28L144 27V23L143 22V21L142 20V19L141 18V17L137 13H136L135 12H133L132 11H127L126 12H125L124 13H123L119 17V18L117 20V22L116 23V26L115 27V40L116 41V43L115 44H114L113 43H107L106 42H101L100 41H94L93 40H87L86 39H80L79 38H73L72 37H67L66 36H60L59 35H57L56 34L57 33H58L59 32H60L61 31H62L63 30H64L65 29H66L68 27H69L70 26H71L73 24H74L76 22H77L84 15L85 16H98L99 15H102L103 14H105L106 13H107L108 12H109L110 11H111L113 9H114L118 5V4L120 2V0H84Z" fill="#302fec"/>
  <path class="frame frame3" d="M124 0L123 1H116L115 2H109L108 3H102L101 4H97L96 5H92L91 6H88L87 7H83L82 8H79L78 9H75L74 10H71L70 11H68L67 12H65L64 13H62L61 14H59L58 15H57L56 16H55L54 17H53L52 18H51L50 19H49L48 20H47L46 21H45L43 23H42L40 25H39L32 32V33L30 35V37L29 38V47L30 48V50L31 51V52L32 53V54L41 63H42L44 65H45L47 67H48L49 68H50L51 69H52L53 70H54L55 71H56L57 72H59L60 73H61L62 74H64L65 75H67L68 76H70L71 77H73L74 78H77L78 79H82L83 80H86L87 81H89L90 82L89 83V103L90 104L88 106H87L86 107H85L84 108H83L81 110H80L78 112H77L74 115H73L68 120H67L54 133V134L50 138V139L47 142V143L44 146V147L43 148V149L42 150V151L41 152V154L40 155V157L36 161H35L34 162H33L31 164H30L26 168H25L20 173H19L14 178V179L9 184V185L7 187V188L6 189V190L5 191V192L4 193V194L3 195V196L2 197V199L1 200V204L0 205V212H77L76 211V210L69 203H68L66 201H65L63 199H61L60 198H59L58 197H56L55 196H52L51 195H48L47 194L48 193H50L51 192H53L54 191H55L56 190H58L59 189H61L62 188H63L64 187H65L66 186H68L69 185H70L71 184H72L73 183H74L75 182H77L78 181H79L80 180H81L82 179H83L84 178H85L86 177H87L88 176H89L90 175H91L93 173H94L95 172H96L97 171H98L100 169H101L103 167H104L106 165H107L109 163H110L112 161H113L117 157H118L121 154H124L125 155H128L129 156H134L135 157H142L143 158H153L154 159H176L177 158H181L182 159V160L181 161V162L180 163V165L179 166V168L178 169V171L177 172V175L176 176V180L175 181V207L176 208V212H250V211L241 202H240L238 200H237L236 199H235L233 197H231L230 196H229L228 195H226L225 194H223L222 193H217L216 192L217 191V190L220 187V186L222 184V183L223 182V181L225 179V178L226 177V176L227 175V174L228 173V172L229 171V170L230 169V167L231 166V164L232 163V160L233 159V152L234 151V145L233 144V139L232 138V137L231 136V134L229 132V131L225 127V126H224L220 122H219L217 120H216L215 119H214L213 118H212L211 117H210L209 116H208L207 115H206L205 114H203L202 113H200L199 112H197L196 111H194L193 110H190L189 109H185L184 108H179L178 107H157L156 106V104L157 103V99L158 98V95L159 94V89L160 88H183L184 87H192L193 86H198L199 85H202L203 84H206L207 83H209L210 82H212L213 81H214L215 80H216L217 79H218L224 73V72L225 71V69L226 68V63L225 62V60L224 59V58L223 57V56L221 54V53L211 43H210L206 39H205L202 36H201L199 34H198L196 32H195L193 30H192L190 28H189L188 27H187L185 25H184L183 24H182L181 23H180L179 22H178L177 21H176L174 19H173L172 18H171L170 17H169L168 16H167L165 14H164L163 13H162L161 12H160L159 11H158L157 10H156L154 8H152L151 7H150L149 6H148L146 4H145L144 3H143L142 2H141L140 1H139V7L140 8V10L141 11V13L142 14V15L144 17V18L150 24H151L153 26H154L155 27H156L157 28H158L159 29H161L164 32V33L166 35V36L170 40V41L181 52L180 53H178L177 52H169L168 51H161L160 50H154L153 49H147L146 48H142L141 47V45L142 44V42L143 41V27L142 26V25L141 24V23L139 21H138L137 20H136L135 19H134L133 18H128L127 19H125L123 21H122L121 22V23L119 25V26L117 28V30L116 31V34L115 35V44L114 45H113L112 44H105L104 43H96L95 42H89L88 41H79L78 40H72L71 39L72 38H73L75 36H76L77 35H78L79 34H80L82 32H83L85 30H86L88 28H89L98 19H106L107 18H111L112 17H114L115 16H116L117 15H118L119 14H120L127 7V6L128 5V4L129 3V2L130 1V0H124Z" fill="#302fec"/>
  <path class="frame frame4" d="M143 0L142 1H140L138 3H137L134 6V7L132 9V10L131 11V12L130 13V15L129 16V18L128 19V29L127 30L126 29H122L121 28H117L116 27H111L110 26H103L102 25H92L91 24H54L53 25H42L41 26H34L33 27H29L28 28H24L23 29H21L20 30H19L18 31H16L14 33H13L11 35H10L5 40V41L2 44V45L0 47V48H3L4 49H10L11 50H12L13 51H18L19 50H23L24 49H26L27 48H28L29 47H30L32 45H36L37 46H39L40 47H43L44 48H46L47 49H50L51 50H53L54 51H57L58 52H60L61 53H64L65 54H68L69 55H71L72 56H75L76 57H79L80 58H83L84 59H87L88 60H91L92 61H94L95 62H99L100 63V64L99 65V68L98 69V73L97 74V77L96 78V83L95 84V88L94 89H92L91 90H89L88 91H85L84 92H82L81 93H79L78 94H76L75 95H73L72 96H71L70 97H68L67 98H66L65 99H63L62 100H61L60 101H59L58 102H56L55 103H54L53 104H52L50 106H49L48 107H47L46 108H45L43 110H42L41 111H40L37 114H36L33 117H32L22 127V128L20 130V131L19 132V133L18 134V136L17 137V141L16 142V152L17 153V157L18 158V160L19 161V162L20 163V165L21 166V167L23 169V170L25 172V173L29 177V178L38 187H39L44 192H45L48 195H49L51 197H52L53 198H54L56 200H57L58 201V202L57 203H52L51 204H48L47 205H45L44 206H43L42 207H41L40 208H39L37 210H36L32 214H31L30 215V216L27 219V220L25 222L26 223H110V218L109 217V214L108 213V211L107 210V207L106 206V205L105 204V202L104 201V199L103 198V197L102 196V195L101 194V192L100 191V190L99 189V188L98 187V186L96 184V183L95 182V181L94 180V179L92 177V176L90 174V173L88 171V170L86 168V167L81 162V161L73 153V152L74 151H81L82 150H88L89 149H97L98 148H109L110 147H117L118 148H122L123 149H126L127 150H130L131 151H133L134 152H137L138 153H140L141 154H143L144 155H146L147 156H149L150 157H151L152 158H154L155 159H157L158 160H159L160 161H163L164 162H165L166 163H168L169 164H170L172 166L171 167V169L170 170V173L169 174V177L168 178V182L167 183V204L168 205V211L169 212V215L170 216V219L171 220V221L172 222V223H247V222L237 212H236L234 210H233L232 209H231L230 208H229L228 207H227L226 206H224L223 205H221L220 204H217L216 203H212L211 202L212 201V200L213 199V198L214 197V196L215 195V194L216 193V192L217 191V189L218 188V186L219 185V183L220 182V179L221 178V174L222 173V167L223 166V158L222 157V152L221 151V149L220 148V146L219 145V144L218 143V142L216 140V139L206 129H205L202 126H201L198 123H197L196 122H195L193 120H192L190 118H189L188 117H187L186 116H185L183 114H181L180 113H179L178 112H177L176 111H175L174 110H172L171 109H170L169 108H167L166 107H164L163 106H161L160 105L161 104V103L162 102V100L163 99V97L164 96V93L165 92V89L166 88V82L167 81L168 82H169L170 83H171L172 84H174L175 85H177L178 86H179L180 87H182L183 88H185L186 89H187L188 90H190L191 91H192L193 92H195L196 93H197L198 94H200L201 95H203L204 96H205L206 97H208L209 98H211L212 99H214L215 100H216L217 101H219L220 102H222L223 103H225L227 105V106L232 111H233L235 113H236L238 115H240L241 116H243L244 117H252L253 118H255L256 117H260V116L259 115V113L258 112V111L257 110V109L256 108V107L254 105V104L245 95H244L243 94H242L241 93H240L239 92H237L219 74H218L214 70H213L209 66H208L205 63H204L202 61H201L198 58H197L196 57H195L193 55H192L190 53H189L188 52H187L185 50H184L183 49H182L181 48H180L179 47H178L177 46H176L175 45H174L173 44H172L171 43H170L169 42H168L167 41H166L165 40H163L162 39H160L159 38H158L157 37H154L153 36V35L154 34V33L156 31V29L157 28V27L158 26V24L159 23V19L160 18V11L159 10V7L157 5V4L155 2H154L153 1H152L151 0H143Z" fill="#302fec"/>
  <path class="frame frame5" d="M151 0L150 1H146L144 3H143L142 4H141L138 7V8L136 10V11L135 12V13L134 14V16L133 17V19L132 20V25L131 26V31L130 32H129L128 31H125L124 30H121L120 29H117L116 28H112L111 27H107L106 26H102L101 25H98L97 24H92L91 23H87L86 22H81L80 21H75L74 20H69L68 19H63L62 18H57L56 17H52L51 16H46L45 15H42L37 10H36L35 9H34L33 8H32L31 7H29L28 6H23L22 5H14L13 6H5L4 7H0V9L2 11V12L10 20H11L13 22H14L15 23H17L18 24H24L26 26V27L30 31H31L36 36H37L40 39H41L43 41H44L46 43H47L49 45H50L51 46H52L53 47H54L56 49H57L58 50H59L60 51H61L62 52H63L64 53H65L66 54H67L68 55H69L70 56H71L72 57H73L74 58H76L77 59H78L79 60H81L82 61H83L84 62H87L88 63H90L91 64H93L94 65H97L98 66H99L100 67L99 68V69L98 70V71L97 72V74L96 75V76L95 77V78L94 79V81L93 82V83L92 84V85L91 86H89L88 87H85L84 88H80L79 89H76L75 90H72L71 91H69L68 92H66L65 93H63L62 94H61L60 95H58L57 96H56L55 97H54L53 98H52L51 99H50L49 100H48L47 101H46L45 102H44L43 103H42L40 105H39L37 107H36L33 110H32L23 119V120L21 122V123L19 125V126L18 127V128L17 129V131L16 132V134L15 135V140L14 141V149L15 150V154L16 155V157L17 158V160L18 161V162L19 163V164L20 165V166L21 167V168L24 171V172L27 175V176L36 185H37L41 189H42L45 192H46L48 194H49L51 196H52L53 197H54L55 198L54 199H53L52 200H49L48 201H46L45 202H43L42 203H41L40 204H38L36 206H35L32 209H31L27 213V214L24 217V218H105V216L104 215V211L103 210V207L102 206V204L101 203V200L100 199V197L99 196V195L98 194V192L97 191V190L96 189V188L95 187V186L94 185V184L93 183V182L91 180V179L90 178V177L89 176V175L87 173V172L86 171V170L84 168V167L81 164V163L78 160V159L69 150H68L67 149L68 148H71L72 147H81L82 146H97L98 145H107L108 146H110L111 147H113L114 148H116L117 149H119L120 150H123L124 151H126L127 152H129L130 153H132L133 154H135L136 155H137L138 156H141L142 157H144L145 158H147L148 159H150L151 160H152L153 161H155L156 162H159L160 163H162L164 165L163 166V168L162 169V171L161 172V174L160 175V178L159 179V182L158 183V190L157 191V210L158 211V217L159 218H231V217L229 215V214L224 209H223L220 206H219L218 205H217L216 204H215L214 203H213L212 202H210L209 201H207L206 200H202L200 198V197L202 195V194L203 193V192L205 190V189L206 188V187L208 185V183L209 182V181L210 180V179L211 178V176L212 175V173L213 172V169L214 168V149L213 148V146L212 145V144L210 142V141L208 139V138L198 128H197L194 125H193L191 123H190L189 122H188L186 120H185L183 118H182L181 117H180L179 116H178L177 115H176L175 114H174L173 113H171L170 112H169L168 111H166L165 110H163L162 109H160L159 108H156L154 106L155 105V104L156 103V102L157 101V100L158 99V98L159 97V95L160 94V93L161 92V91L162 90V88L163 87V85L164 84V82L165 81L166 82H171L172 83H177L178 84H185L186 85H194L195 86H205L206 87H221L223 89V90L224 91V92L229 97H230L232 99H233L234 100H235L236 101H238L239 102H251V101L250 100V97L249 96V94L248 93V91L247 90V89L246 88V87L245 86V85L243 83V82L235 74H234L232 72H231L229 70H228L227 69H226L224 67H223L222 66H221L220 65H219L218 64H217L216 63H215L213 61H212L211 60H210L209 59H207L206 58H205L204 57H203L202 56H201L200 55H199L198 54H197L196 53H194L193 52H192L191 51H190L189 50H187L186 49H185L184 48H182L181 47H179L178 46H177L176 45H174L173 44H170L169 43H167L166 42H164L163 41H162L161 40H158L157 39H156L155 38L156 37V36L158 34V33L159 32V31L161 29V28L162 27V25L163 24V22L164 21V9L163 8V7L162 6V5L160 3H159L158 2H157L156 1H153L152 0H151Z" fill="#302fec"/>
  <path class="frame frame6" d="M124 0L123 1H120L119 2H118L114 6V7L113 8V9L112 10V13L111 14V28L112 29V31L113 32V34L114 35L113 36H96L95 37H91L90 38H87L86 39H85L84 40H83L82 41H81L80 42H79L78 43H77L76 44H75L73 46H72L70 48H69L66 51H65L61 55H60L32 83V84L31 85H30L29 84H16L15 85H13L12 86H10L9 87H8L7 88H6L5 89H4L3 90H2L1 91H0V93L4 97H5L7 99H8L10 101H12L13 102H16L17 103H29L30 102H33L34 101H36L37 100H39L40 99H41L42 98H44L45 97H47L48 96H49L50 95H52L53 94H54L55 93H56L57 92H59L60 91H61L62 90H63L64 89H65L66 88H67L68 87H69L70 86H71L73 84H74L75 83H76L77 82H78L80 80H81L82 79H83L85 77H86L88 75L89 76V88L90 89L89 90V91L86 94V95L84 97V98L82 100V101L81 102V103L80 104V105L79 106V107L78 108V109L76 111V112L75 113V114L74 115V116L73 117V118L72 119V120L71 121V122L70 123V124L69 125V126L68 127V128L67 129V131L66 132V133L65 134V135L64 136V137L63 138V140L62 141V142L61 143V144L60 145V147L59 148V149L58 150V152L57 153V154L56 155V157L55 158V160L54 161V162L53 163V165L52 166V168L51 169V171L50 172V173L49 174V177L48 178V180L47 181V183L46 184V186L45 187V189L44 190V193L43 194V197L42 198V201L41 202V205L40 206V209L39 210V213L38 214H35L34 215H33L32 216H30L29 217H28L27 218H26L25 219H24L23 220H22L21 221H20L17 224H16L9 231V232L8 233H88L89 234H92V233H89L87 231V230L80 223H79L78 222L79 221V220L81 218V217L82 216V215L84 213V212L85 211V210L86 209V208L87 207V206L88 205V204L89 203V202L90 201V200L91 199V198L92 197V196L93 195V194L94 193V192L95 191V190L96 189V188L97 187V186L98 185V184L99 183V182L100 181V180L101 179V178L102 177V176L103 175V174L104 173V172L105 171V170L106 169V168L107 167V166L108 165V164L109 163V162L111 160V158L112 157V156L114 154V153L115 152V151L116 150V149L117 148V147L119 145V144L120 143V142L121 141V140L122 139V137L123 136L125 138V139L127 141V142L128 143V144L130 146V147L131 148V149L132 150V151L134 153V154L135 155V156L136 157V158L137 159V160L138 161V162L140 164V165L141 166V167L142 168V169L143 170V171L144 172V173L146 175V176L147 177V178L148 179V180L149 181V182L150 183V184L151 185V186L152 187V188L153 189V190L154 191V192L155 193V194L156 195V196L157 197V198L158 199V200L159 201V202L160 203V204L161 205V206L163 208V209L164 210V211L165 212V213L166 214V215L167 216V217L168 218V219L169 220V221L170 222V223L172 225V226L165 233H164H242V232L240 230V229L234 223H233L231 221H230L228 219H227L226 218H224L223 217H222L221 216H219L218 215H215L214 214H211L209 212V209L208 208V205L207 204V201L206 200V197L205 196V194L204 193V190L203 189V187L202 186V184L201 183V181L200 180V178L199 177V175L198 174V172L197 171V170L196 169V167L195 166V164L194 163V161L193 160V159L192 158V156L191 155V154L190 153V151L189 150V149L188 148V147L187 146V144L186 143V142L185 141V140L184 139V137L183 136V135L182 134V133L181 132V131L180 130V129L179 128V127L178 126V125L177 124V123L176 122V121L174 119V118L173 117V116L172 115V114L171 113V112L170 111V110L168 108V107L167 106V105L165 103V102L164 101V100L162 98V97L160 95V94L158 92V86L159 85V78L160 77H161L163 79H164L165 80H166L167 81H168L170 83H171L172 84H173L174 85H175L176 86H177L179 88H180L181 89H182L183 90H184L185 91H186L187 92H189L190 93H191L192 94H193L194 95H195L196 96H198L199 97H200L201 98H203L204 99H206L207 100H209L210 101H212L213 102H216L217 103H221L222 104H231L232 103H236L237 102H239L240 101H241L242 100H243L244 99H245L251 93V92H250L249 91H248L247 90H246L245 89H244L243 88H242L241 87H239L238 86H237L236 85H222L221 86H219L210 77V76L191 57H190L185 52H184L180 48H179L177 46H176L175 45H174L172 43H171L170 42H169L168 41H167L166 40H164L163 39H161L160 38H157L156 37H151L150 36H138L137 35L138 34V32L139 31V28L140 27V14L139 13V11L138 10V9L137 8V7L135 5V4H134L132 2H131L130 1H128L127 0H124Z" fill="#302fec"/>
</svg>