<svg xmlns="http://www.w3.org/2000/svg" viewBox="0 0 24 30" x="0px" y="0px"><title/><path d="M18,6.06a2,2,0,0,0-1.14.35,2,2,0,0,0-3-.92,2,2,0,0,0-3.57-.27A2,2,0,0,0,7,6.75V8a2.06,2.06,0,0,0-1-.26,2.12,2.12,0,0,0-1.55.57A1.61,1.61,0,0,0,4,9.5v7A3.67,3.67,0,0,0,7.48,20h7C17.58,20,20,17.34,20,14V8.06A2,2,0,0,0,18,6.06ZM19,14C19,16.43,17.31,19,14.5,19h-7A2.66,2.66,0,0,1,5,16.5v-7A.62.62,0,0,1,5.17,9,1.18,1.18,0,0,1,6,8.75a1,1,0,0,1,1,1v3.51a.5.5,0,0,0,.5.5.5.5,0,0,0,.5-.5V6.75a1,1,0,0,1,2,0,.5.5,0,0,0,.5.5.5.5,0,0,0,.5-.5v-.5a1,1,0,0,1,2,0v.87a.5.5,0,0,0,.5.5.5.5,0,0,0,.5-.5,1,1,0,1,1,2,0v.94a.5.5,0,0,0,.5.5.5.5,0,0,0,.5-.5,1,1,0,1,1,2,0Z"/><text x="0" y="39" fill="#000000" font-size="5px" font-weight="bold" font-family="'Helvetica Neue', Helvetica, Arial-Unicode, Arial, Sans-serif">Created by Martin</text><text x="0" y="44" fill="#000000" font-size="5px" font-weight="bold" font-family="'Helvetica Neue', Helvetica, Arial-Unicode, Arial, Sans-serif">from the Noun Project</text></svg>