<svg width="18" height="19" viewBox="0 0 18 19" fill="none" xmlns="http://www.w3.org/2000/svg">
<path d="M8.7734 0.926772C9.37914 0.926772 9.65958 1.51249 9.66412 2.03528L9.94261 7.99368C9.9326 8.36606 10.2111 8.56763 10.4758 8.56763C10.6816 8.56763 10.8791 8.44576 10.9261 8.18747C11.01 7.72612 11.8447 4.30328 12.0024 3.47993C12.0749 3.10098 12.2858 2.40618 13.0757 2.40627C13.1231 2.40627 13.1726 2.40877 13.2243 2.41396C13.9402 2.48634 14.017 3.33897 13.9402 3.81005C13.6643 5.5015 12.9982 8.57255 12.9324 8.92796C12.8846 9.18598 13.1886 9.35029 13.4377 9.35029C13.5649 9.35029 13.6777 9.30748 13.7222 9.21248C13.848 8.9439 14.5683 7.49582 15.0853 6.56201C15.3336 6.11326 15.6335 5.86406 15.9962 5.86406C16.1023 5.86406 16.2139 5.88537 16.331 5.92939C16.8276 6.11558 16.8843 6.89064 16.7231 7.29583L13.5107 16.8052C13.4496 16.986 13.2801 17.1076 13.0895 17.1076C13.0893 17.1076 13.0891 17.1076 13.0889 17.1076L6.80447 17.1001C6.5725 17.0998 6.35211 16.9987 6.20068 16.8229L1.07749 10.8806C0.85089 10.6125 0.884346 10.2113 1.15255 9.98457C1.15255 9.98457 1.47405 9.71553 1.95718 9.71563C2.06079 9.71563 2.17191 9.72804 2.28887 9.75807C2.97487 9.93453 4.24816 11.1792 4.7678 11.6008C4.86928 11.6832 4.99717 11.7197 5.12896 11.7197C5.51505 11.7197 5.93525 11.4062 5.82654 11.0126C5.67965 10.4802 3.79376 6.2545 2.93242 4.36834C2.79887 4.07585 2.57654 3.0627 3.37671 2.72619C3.5161 2.66753 3.64297 2.64223 3.75845 2.64223C4.38504 2.64223 4.67466 3.39059 4.79616 3.63665C4.79616 3.63665 6.58334 7.59091 7.01707 8.35327C7.1091 8.52482 7.24043 8.59831 7.36554 8.59831C7.56396 8.59831 7.74663 8.41323 7.73087 8.14113C7.7014 7.63271 7.66618 3.7373 7.70789 2.02898C7.72133 1.4846 8.05496 0.936966 8.76005 0.926957C8.76441 0.926865 8.76895 0.926772 8.7734 0.926772ZM8.7734 0L8.74689 0.000185253C7.63606 0.016033 6.80948 0.859581 6.7813 2.00609C6.75943 2.90265 6.75823 4.40439 6.76675 5.71169C6.3321 4.77649 5.88252 3.79003 5.64063 3.25492C5.63628 3.24528 5.63173 3.23573 5.62701 3.22618C5.61848 3.20895 5.60894 3.18847 5.59828 3.16557C5.42998 2.80691 4.91775 1.71555 3.75845 1.71545C3.51369 1.71545 3.26439 1.7681 3.0174 1.87189C2.54512 2.0705 2.19851 2.42369 2.01529 2.8932C1.73318 3.6158 1.9291 4.40244 2.08933 4.75332C2.83047 6.376 3.87281 8.71684 4.47095 10.1178C3.74566 9.49811 3.09173 9.00767 2.51954 8.86049C2.33465 8.81295 2.1454 8.78885 1.95699 8.78885C1.17674 8.78885 0.654414 9.19283 0.557566 9.27383C0.235235 9.54621 0.0404273 9.92369 0.00558071 10.3398C-0.0292659 10.7556 0.099926 11.1602 0.369339 11.4789C0.371285 11.4812 0.373231 11.4835 0.37527 11.4859L5.49846 17.4282C5.8258 17.8081 6.30133 18.0264 6.80308 18.0269L13.0875 18.0344C13.6779 18.0344 14.1999 17.6597 14.3884 17.102L17.5944 7.61176C17.7911 7.09397 17.7742 6.43726 17.5496 5.92976C17.3672 5.51763 17.0498 5.20938 16.6561 5.06175C16.4362 4.97927 16.2141 4.93747 15.9959 4.93747C15.5829 4.93747 15.0222 5.08325 14.5336 5.71549C14.6573 5.08158 14.7724 4.4625 14.8545 3.95926C14.8965 3.70171 14.9931 2.80821 14.4725 2.12926C14.1895 1.76012 13.7899 1.53974 13.3173 1.49192C13.2356 1.48367 13.1542 1.4795 13.0754 1.4795C12.0524 1.4795 11.3109 2.16216 11.0919 3.30561C11.0372 3.59133 10.8925 4.22469 10.7271 4.93395L10.5903 2.00776C10.5721 0.861805 9.79377 0 8.7734 0Z" fill="black"/>
</svg>
